REM Cue file generated by Ardour
TITLE "Projekt"
FILE "Projekt.wav" WAVE
  TRACK 01 AUDIO
    FLAGS DCP 
    TITLE "mark1"
    INDEX 00 00:00:00
    INDEX 01 00:06:44
  TRACK 02 AUDIO
    FLAGS DCP 
    TITLE "mark5"
    INDEX 01 00:07:67
  TRACK 03 AUDIO
    FLAGS DCP 
    TITLE "mark2"
    INDEX 01 00:11:31
  TRACK 04 AUDIO
    FLAGS DCP 
    TITLE "mark3"
    INDEX 01 00:14:56
  TRACK 05 AUDIO
    FLAGS DCP 
    TITLE "mark4"
    INDEX 01 00:18:43
  TRACK 06 AUDIO
    FLAGS DCP 
    TITLE "mark6"
    INDEX 01 00:20:36
  TRACK 07 AUDIO
    FLAGS DCP 
    TITLE "mark7"
    INDEX 01 00:26:18
  TRACK 08 AUDIO
    FLAGS DCP 
    TITLE "mark8"
    INDEX 01 00:33:12
  TRACK 09 AUDIO
    FLAGS DCP 
    TITLE "mark9"
    INDEX 01 00:39:24
  TRACK 10 AUDIO
    FLAGS DCP 
    TITLE "mark11"
    INDEX 01 00:45:57
  TRACK 11 AUDIO
    FLAGS DCP 
    TITLE "mark12"
    INDEX 01 00:52:62
  TRACK 12 AUDIO
    FLAGS DCP 
    TITLE "mark13"
    INDEX 01 00:55:00
  TRACK 13 AUDIO
    FLAGS DCP 
    TITLE "mark14"
    INDEX 01 01:09:25
  TRACK 14 AUDIO
    FLAGS DCP 
    TITLE "mark15"
    INDEX 01 01:10:44
  TRACK 15 AUDIO
    FLAGS DCP 
    TITLE "mark16"
    INDEX 01 01:19:06
  TRACK 16 AUDIO
    FLAGS DCP 
    TITLE "mark17"
    INDEX 01 01:21:50
  TRACK 17 AUDIO
    FLAGS DCP 
    TITLE "mark18"
    INDEX 01 01:27:18
  TRACK 18 AUDIO
    FLAGS DCP 
    TITLE "mark19"
    INDEX 01 01:29:25
  TRACK 19 AUDIO
    FLAGS DCP 
    TITLE "mark20"
    INDEX 01 01:39:31
  TRACK 20 AUDIO
    FLAGS DCP 
    TITLE "mark21"
    INDEX 01 01:44:18
  TRACK 21 AUDIO
    FLAGS DCP 
    TITLE "mark22"
    INDEX 01 01:45:16
  TRACK 22 AUDIO
    FLAGS DCP 
    TITLE "mark23"
    INDEX 01 01:47:02
  TRACK 23 AUDIO
    FLAGS DCP 
    TITLE "mark24"
    INDEX 01 01:49:18
  TRACK 24 AUDIO
    FLAGS DCP 
    TITLE "mark25"
    INDEX 01 01:55:31
  TRACK 25 AUDIO
    FLAGS DCP 
    TITLE "mark26"
    INDEX 01 02:01:18
  TRACK 26 AUDIO
    FLAGS DCP 
    TITLE "mark27"
    INDEX 01 02:06:56
  TRACK 27 AUDIO
    FLAGS DCP 
    TITLE "mark28"
    INDEX 01 02:11:12
  TRACK 28 AUDIO
    FLAGS DCP 
    TITLE "mark29"
    INDEX 01 02:19:54
  TRACK 29 AUDIO
    FLAGS DCP 
    TITLE "mark30"
    INDEX 01 02:23:06
  TRACK 30 AUDIO
    FLAGS DCP 
    TITLE "mark31"
    INDEX 01 02:26:62
  TRACK 31 AUDIO
    FLAGS DCP 
    TITLE "mark32"
    INDEX 01 02:33:31
  TRACK 32 AUDIO
    FLAGS DCP 
    TITLE "mark33"
    INDEX 01 02:35:37
  TRACK 33 AUDIO
    FLAGS DCP 
    TITLE "mark34"
    INDEX 01 02:39:43
  TRACK 34 AUDIO
    FLAGS DCP 
    TITLE "mark35"
    INDEX 01 02:42:43
  TRACK 35 AUDIO
    FLAGS DCP 
    TITLE "mark36"
    INDEX 01 02:51:50
  TRACK 36 AUDIO
    FLAGS DCP 
    TITLE "mark37"
    INDEX 01 02:54:55
  TRACK 37 AUDIO
    FLAGS DCP 
    TITLE "mark38"
    INDEX 01 02:56:12
  TRACK 38 AUDIO
    FLAGS DCP 
    TITLE "mark39"
    INDEX 01 02:59:18
  TRACK 39 AUDIO
    FLAGS DCP 
    TITLE "mark40"
    INDEX 01 03:00:16
  TRACK 40 AUDIO
    FLAGS DCP 
    TITLE "mark41"
    INDEX 01 03:14:56
  TRACK 41 AUDIO
    FLAGS DCP 
    TITLE "mark42"
    INDEX 01 03:17:23
  TRACK 42 AUDIO
    FLAGS DCP 
    TITLE "mark43"
    INDEX 01 03:22:68
  TRACK 43 AUDIO
    FLAGS DCP 
    TITLE "mark44"
    INDEX 01 03:24:54
  TRACK 44 AUDIO
    FLAGS DCP 
    TITLE "mark45"
    INDEX 01 03:25:40
  TRACK 45 AUDIO
    FLAGS DCP 
    TITLE "mark46"
    INDEX 01 03:26:35
  TRACK 46 AUDIO
    FLAGS DCP 
    TITLE "mark47"
    INDEX 01 03:38:42
  TRACK 47 AUDIO
    FLAGS DCP 
    TITLE "mark48"
    INDEX 01 03:41:21
  TRACK 48 AUDIO
    FLAGS DCP 
    TITLE "mark49"
    INDEX 01 03:48:32
  TRACK 49 AUDIO
    FLAGS DCP 
    TITLE "mark50"
    INDEX 01 03:53:37
  TRACK 50 AUDIO
    FLAGS DCP 
    TITLE "mark51"
    INDEX 01 04:04:32
  TRACK 51 AUDIO
    FLAGS DCP 
    TITLE "mark52"
    INDEX 01 04:12:33
  TRACK 52 AUDIO
    FLAGS DCP 
    TITLE "mark53"
    INDEX 01 04:15:37
  TRACK 53 AUDIO
    FLAGS DCP 
    TITLE "mark54"
    INDEX 01 04:18:10
  TRACK 54 AUDIO
    FLAGS DCP 
    TITLE "mark55"
    INDEX 01 04:19:26
  TRACK 55 AUDIO
    FLAGS DCP 
    TITLE "mark56"
    INDEX 01 04:20:58
  TRACK 56 AUDIO
    FLAGS DCP 
    TITLE "mark57"
    INDEX 01 04:22:53
  TRACK 57 AUDIO
    FLAGS DCP 
    TITLE "mark58"
    INDEX 01 04:24:25
  TRACK 58 AUDIO
    FLAGS DCP 
    TITLE "mark59"
    INDEX 01 04:25:26
  TRACK 59 AUDIO
    FLAGS DCP 
    TITLE "mark60"
    INDEX 01 04:37:48
  TRACK 60 AUDIO
    FLAGS DCP 
    TITLE "mark63"
    INDEX 01 04:41:41
  TRACK 61 AUDIO
    FLAGS DCP 
    TITLE "mark61"
    INDEX 01 04:42:64
  TRACK 62 AUDIO
    FLAGS DCP 
    TITLE "mark64"
    INDEX 01 04:45:17
  TRACK 63 AUDIO
    FLAGS DCP 
    TITLE "mark62"
    INDEX 01 04:46:27
  TRACK 64 AUDIO
    FLAGS DCP 
    TITLE "mark65"
    INDEX 01 04:47:55
  TRACK 65 AUDIO
    FLAGS DCP 
    TITLE "mark67"
    INDEX 01 04:59:69
  TRACK 66 AUDIO
    FLAGS DCP 
    TITLE "mark68"
    INDEX 01 05:15:66
  TRACK 67 AUDIO
    FLAGS DCP 
    TITLE "mark66"
    INDEX 01 05:22:06
  TRACK 68 AUDIO
    FLAGS DCP 
    TITLE "mark69"
    INDEX 01 05:26:67
  TRACK 69 AUDIO
    FLAGS DCP 
    TITLE "mark70"
    INDEX 01 05:33:65
  TRACK 70 AUDIO
    FLAGS DCP 
    TITLE "mark71"
    INDEX 01 05:39:10
  TRACK 71 AUDIO
    FLAGS DCP 
    TITLE "mark72"
    INDEX 01 05:44:26
  TRACK 72 AUDIO
    FLAGS DCP 
    TITLE "mark73"
    INDEX 01 05:51:00
  TRACK 73 AUDIO
    FLAGS DCP 
    TITLE "mark74"
    INDEX 01 05:55:37
  TRACK 74 AUDIO
    FLAGS DCP 
    TITLE "mark75"
    INDEX 01 06:06:06
  TRACK 75 AUDIO
    FLAGS DCP 
    TITLE "mark76"
    INDEX 01 06:16:53
  TRACK 76 AUDIO
    FLAGS DCP 
    TITLE "mark77"
    INDEX 01 06:20:21
  TRACK 77 AUDIO
    FLAGS DCP 
    TITLE "mark78"
    INDEX 01 06:22:48
  TRACK 78 AUDIO
    FLAGS DCP 
    TITLE "mark79"
    INDEX 01 06:29:53
  TRACK 79 AUDIO
    FLAGS DCP 
    TITLE "mark80"
    INDEX 01 06:39:34
  TRACK 80 AUDIO
    FLAGS DCP 
    TITLE "mark81"
    INDEX 01 06:41:62
  TRACK 81 AUDIO
    FLAGS DCP 
    TITLE "mark82"
    INDEX 01 06:47:55
